<?xml version="1.0" encoding="utf-8"?><!-- Uploaded to: SVG Repo, www.svgrepo.com, Generator: SVG Repo Mixer Tools -->
<svg width="800px" height="800px" viewBox="0 0 24 24" fill="none" xmlns="http://www.w3.org/2000/svg">
<path fill-rule="evenodd" clip-rule="evenodd" d="M8.8183 8.81803C9.1112 8.52513 9.58607 8.52513 9.87896 8.81803L12.0003 10.9394L14.1216 8.81803C14.4145 8.52513 14.8894 8.52513 15.1823 8.81803C15.4752 9.11092 15.4752 9.5858 15.1823 9.87869L13.0609 12L15.1823 14.1213C15.4752 14.4142 15.4752 14.8891 15.1823 15.182C14.8894 15.4749 14.4145 15.4749 14.1216 15.182L12.0003 13.0607L9.87897 15.182C9.58608 15.4749 9.1112 15.4749 8.81831 15.182C8.52542 14.8891 8.52542 14.4142 8.81831 14.1213L10.9396 12L8.8183 9.87869C8.52541 9.58579 8.52541 9.11092 8.8183 8.81803Z" fill="#3A52EE"/>
</svg>